<svg xmlns="http://www.w3.org/2000/svg" viewBox="0 0 93.47 235.77"><defs><style>.cls-1{fill:#020202;}.cls-2{fill:#010101;}.cls-3{fill:#e49728;}.cls-4{fill:#bc9862;}.cls-5{fill:#bd8f4c;}.cls-6{fill:#b88f53;}.cls-7{fill:#bc8f4c;}.cls-8{fill:#bb8e4d;}.cls-9{fill:#bb8f4e;}.cls-10{fill:#bb9258;}.cls-11{fill:#bc8636;}.cls-12{fill:#bb8f4f;}.cls-13{fill:#bc8f4e;}.cls-14{fill:#bb8d4b;}.cls-15{fill:#bc9152;}</style></defs><title>Asset 6</title><g id="Layer_2" data-name="Layer 2"><g id="Layer_1-2" data-name="Layer 1"><path class="cls-1" d="M2.57,155.45c0-23.63.33-47.26-.16-70.88C2.2,75,8.69,71.6,15.89,71.48c10.39-.17,20.8-.26,31.18.06,4.66.14,9.31,1.35,11.7,6.19a8.13,8.13,0,0,1,1,3.42c0,38.51-.12,77-.05,115.53,0,3.57-1.46,4.46-4.55,4.36-3.42-.1-6.85,0-10.28,0-3.7,0-4.84-1.35-5-5-.15-2.68,1.44-5.89-1.9-7.79a5.19,5.19,0,0,0-2.28-.75c-2.71-.08-5.43,0-8.15,0-3.28-.05-5.24,1.79-5.23,5q0,17.72.06,35.44c0,4.68-3.16,7.81-7.94,7.78-3.83,0-8,1-10.6-3.17a6.38,6.38,0,0,1-1.24-3q-.1-37-.05-74.07Zm37.32-25.56c0-11.35.06-22.69-.09-34,0-1.16-1.16-3.15-2-3.3-3.71-.64-7.59-1.3-11.27-.84-2.53.31-4.41,2.2-4.37,5.86.26,21.62.18,43.25.07,64.88,0,3.36,1.81,4.8,4.52,5.13a39.7,39.7,0,0,0,9.2,0c2.48-.28,4.16-1.38,4.08-4.73C39.7,151.88,39.88,140.88,39.89,129.89Z"/><path class="cls-2" d="M90.9,145.74c0,22.34-.13,44.69.08,67A22.53,22.53,0,0,1,84,230a20.29,20.29,0,0,1-13.15,5.57A47.87,47.87,0,0,1,54.48,234c-7.52-2.26-12.38-7.8-13.62-15.88a87.51,87.51,0,0,1-.93-9.33c-.08-1.82.79-2.89,3-2.82,4.84.16,9.69.1,14.53,0,2.53-.06,1.9,1.57,2.24,3.09.46,2.11,1.06,4.87,2.58,5.86s4.43.63,6.27-.17c1.29-.56,2.52-2.88,2.54-4.43.2-13.71.12-27.42.12-41.14q0-46.46,0-92.92c0-3.38,1.66-4.63,4.58-4.74,3.54-.13,7.09-.08,10.64,0,3.07.05,4.55,1.49,4.54,4.77C90.86,99.4,90.9,122.57,90.9,145.74Z"/><path class="cls-3" d="M82.92,50.84,79.28,63.51C77.76,64,76.23,65,74.7,65c-18.66.1-37.32.12-56,0-1.34,0-3-1.39-3.91-2.61a49.46,49.46,0,0,1-3.5-6.59L9.85,50.87c.18-1,.74-2.08.5-2.94-2.26-8-4.55-16-7.07-24-.66-2.08-2.16-3.9-3.27-5.84V16.06a7.06,7.06,0,0,1,8.32-.25c2.21,1.34,4.79,2.06,7.2,3.06,2.85,1.42,5.6,3.16,8.59,4.15,2.45.82,6.48-3.61,6.29-6.44l.65-1,.77.45.68-.72-.2-.86.07,0,.77-.71-.05,0,2.31-2,.38-1.06,0,.1.89-1.29h0L38,8.07V8l1.33-1.43,0-.05L41,4.6v0l.72-.77,0,0,.71-.77,0,0L43,2.38l.17.09L43,2.41l.74-.72,0,0L44.5,1l0,.06c1.93.87,4.35,1.26,5.69,2.68,5,5.27,9.67,10.82,14.33,16.37,3.12,3.72,3.54,3.9,7.69,1.57,4.29-1.93,8.71-3.63,12.83-5.86,3-1.64,5.64-1.6,8.38.24v2.07A56.3,56.3,0,0,0,90.09,25c-1.45,4.24-2.57,8.59-3.76,12.92S84.05,46.52,82.92,50.84Zm-8.48,6.39.67-2.91q0-.32,0-.64l1.44-5a40.1,40.1,0,0,0,2-4.6c1.29-4.37,2.43-8.78,3.63-13.18l2.47-7.61a38.47,38.47,0,0,0-5,1.36C76.79,26,74,27.49,71.18,28.83s-5.4,1.33-7.62-1.25c-2.52-2.93-5.11-5.79-7.67-8.69S51.1,12.82,48.47,10c-.58-.62-2.78-.79-3.22-.28-2.75,3.14-5.22,6.53-7.78,9.84-2.55,2.7-5.17,5.35-7.64,8.12-2.18,2.44-4.73,2.41-7.37,1.23-3-1.33-5.82-3-8.81-4.33-1.23-.54-2.7-.54-4.63-.88.76,2.75,1.28,4.64,1.81,6.52,1.09,3.89,2.11,7.81,3.32,11.66,1.31,4.17,2.8,8.29,4.21,12.43L19,57.22c1.31.93,2.62,2.65,3.94,2.67,15.83.19,31.67.15,47.51,0,.88,0,1.74-1.24,2.61-1.91Z"/><path class="cls-4" d="M11.31,55.72a49.46,49.46,0,0,0,3.5,6.59c.88,1.21,2.57,2.59,3.91,2.61,18.66.17,37.32.15,56,0,1.53,0,3.06-1,4.58-1.46-.06,2.94-2.22,3.41-4.39,3.42-18.79.06-37.57.13-56.36-.12-1.8,0-4.23-1.78-5.19-3.42C12.07,61.18,11.93,58.31,11.31,55.72Z"/><path class="cls-5" d="M82.92,50.84c1.13-4.32,2.23-8.65,3.41-12.95S88.64,29.21,90.09,25a56.3,56.3,0,0,1,3.38-6.84c-1.06,4.07-2,8.17-3.19,12.21q-2.56,8.95-5.38,17.82C84.58,49.16,83.59,50,82.92,50.84Z"/><path class="cls-6" d="M72.26,21.68c-4.15,2.33-4.56,2.15-7.69-1.57C59.91,14.56,55.22,9,50.24,3.74c-1.34-1.42-3.77-1.82-5.69-2.68C47.28-1.1,49.38.4,51.17,2.41c4.74,5.31,9.51,10.62,14,16.15,2,2.48,4,3.76,7,2.28Z"/><path class="cls-7" d="M0,18.13c1.11,1.94,2.6,3.76,3.27,5.84,2.52,7.93,4.82,15.94,7.07,24,.24.87-.31,2-.5,2.94C8.5,47,7,43.25,5.82,39.39,3.84,33.14,2,26.85.14,20.57A10.61,10.61,0,0,1,0,18.13Z"/><path class="cls-8" d="M72.26,21.68l0-.84c5.4-2.73,10.73-5.61,16.23-8.12,2.67-1.22,4.53.26,5,3.34-2.74-1.84-5.35-1.89-8.38-.24C81,18.05,76.55,19.75,72.26,21.68Z"/><path class="cls-9" d="M15.52,18.87c-2.41-1-5-1.72-7.2-3.06A7.06,7.06,0,0,0,0,16.06c.49-3,2.46-4.5,5-3.39,3.61,1.55,7,3.57,10.53,5.38Z"/><path class="cls-8" d="M15.52,18.87l.05-.81a43.83,43.83,0,0,1,5.36,2.32c2.69,1.59,4.87,1.79,6.77-1.16a16.44,16.44,0,0,1,2.7-2.63c.19,2.83-3.84,7.25-6.29,6.44C21.12,22,18.37,20.28,15.52,18.87Z"/><path class="cls-10" d="M35.4,11.81l-2.31,2,2.29-3Z"/><path class="cls-6" d="M41,4.6,39.36,6.53Z"/><path class="cls-6" d="M39.34,6.58,38,8Z"/><path class="cls-6" d="M38,8.07,36.68,9.55Z"/><path class="cls-6" d="M36.7,9.56l-.89,1.29Z"/><path class="cls-6" d="M44.5,1l-.77.72Z"/><path class="cls-6" d="M43.75,1.69,43,2.41Z"/><path class="cls-6" d="M43,2.38l-.71.77Z"/><path class="cls-6" d="M41.67,3.86,41,4.63Z"/><path class="cls-6" d="M42.35,3.13l-.71.77Z"/><path class="cls-6" d="M35.4,11.81l0-1a.31.31,0,0,1,.4,0Z"/><path class="cls-10" d="M32.31,14.46l.2.86-.65,0-.22-.24Z"/><path class="cls-10" d="M31.82,16,31,15.59l.59-.47.22.24Q31.83,15.69,31.82,16Z"/><path class="cls-10" d="M33.14,13.77l-.77.71Z"/><path class="cls-11" d="M73.09,58c-.87.66-1.74,1.9-2.61,1.91-15.84.12-31.67.15-47.51,0-1.32,0-2.63-1.74-3.94-2.67l.06,0,.83,0a7.87,7.87,0,0,0,2.28.73q25.32,0,50.63-.13Z"/><path class="cls-12" d="M18.36,54.32c-1.41-4.14-2.9-8.25-4.21-12.43-1.21-3.85-2.22-7.77-3.32-11.66-.53-1.89-1-3.78-1.81-6.52,1.93.35,3.4.34,4.63.88,3,1.32,5.82,3,8.81,4.33,2.64,1.17,5.19,1.21,7.37-1.23,2.47-2.77,5.09-5.42,7.64-8.12l.86.06c-2.77,3.31-5.53,6.62-8.32,9.92-2,2.4-4.35,2.8-7.22,1.3C19.22,29,15.5,27.42,11.84,25.72l-.76.68c1.51,4.94,3.07,9.86,4.5,14.82C16.85,45.57,18,50,19.16,54.34Z"/><path class="cls-8" d="M55.88,18.89c2.56,2.89,5.15,5.76,7.67,8.69,2.22,2.57,4.84,2.55,7.62,1.25s5.62-2.85,8.48-4.14a38.47,38.47,0,0,1,5-1.36l-2.47,7.61h-.72L82,25.76a32.16,32.16,0,0,0-3.09,1.07C75.92,28.21,73.1,30,70,31c-1.62.52-4.33.47-5.37-.54-3.57-3.48-6.61-7.49-9.86-11.3Z"/><path class="cls-13" d="M55.88,18.89l-1.08.22L46.63,10.9l-8.3,8.73-.86-.06c2.56-3.31,5-6.7,7.78-9.84.44-.51,2.65-.33,3.22.28C51.1,12.82,53.44,15.91,55.88,18.89Z"/><path class="cls-14" d="M81.47,30.93h.72c-1.2,4.4-2.34,8.81-3.63,13.18a40.1,40.1,0,0,1-2,4.6l-.06-.05.6-3.19Z"/><path class="cls-14" d="M76.57,48.72l-1.44,5-.3-1.86.15-.27.73-1.17.13-1.7h.67Z"/><path class="cls-11" d="M18.36,54.32l.8,0a.29.29,0,0,1,0,.41l-.11,2.41-.06,0Z"/><path class="cls-11" d="M75.11,54.32l-.67,2.91-.06-.07-.11-2.41a.31.31,0,0,1,0-.41Z"/><path class="cls-15" d="M75.11,54.32l-.8,0,.53-2.52.3,1.86Q75.12,54,75.11,54.32Z"/><path class="cls-11" d="M74.43,57.23,73.09,58l-.26-.29.42-.69.18,0,.95.08Z"/><path class="cls-8" d="M31.82,16q0-.34,0-.67l.65,0Z"/><path class="cls-12" d="M19.2,54.75l.72,2.37-.83,0Z"/><path class="cls-15" d="M75.85,48.68l1.27-3.2-.6,3.19Z"/><path class="cls-15" d="M75,51.55l.73-1.17Z"/><path class="cls-15" d="M73.68,56l.58-1.21.11,2.41-.94-.08a1.54,1.54,0,0,0,.05-.54A2.23,2.23,0,0,1,73.68,56Z"/><path class="cls-3" d="M73.48,56.54a1.54,1.54,0,0,1-.05.54l-.18,0a.37.37,0,0,1,.19-.49Z"/><path class="cls-11" d="M73.48,56.54l0,0,.25-.6A2.25,2.25,0,0,0,73.48,56.54Z"/></g></g></svg>