<?xml version="1.0" encoding="UTF-8"?>
<!DOCTYPE svg PUBLIC "-//W3C//DTD SVG 1.1//EN" "http://www.w3.org/Graphics/SVG/1.1/DTD/svg11.dtd">
<svg xmlns="http://www.w3.org/2000/svg" version="1.1" width="172px" height="357px" style="shape-rendering:geometricPrecision; text-rendering:geometricPrecision; image-rendering:optimizeQuality; fill-rule:evenodd; clip-rule:evenodd" xmlns:xlink="http://www.w3.org/1999/xlink">
<g><path style="opacity:1" fill="#e09427" d="M 106.5,38.5 C 107.237,40.3046 108.237,41.9713 109.5,43.5C 119.66,37.833 130.16,32.833 141,28.5C 142.825,28.9434 144.658,29.2767 146.5,29.5C 146.5,31.8333 146.5,34.1667 146.5,36.5C 144.723,39.2296 143.389,42.2296 142.5,45.5C 140.287,51.1225 138.12,56.7892 136,62.5C 135.505,64.4727 135.338,66.4727 135.5,68.5C 132.371,77.5605 129.537,86.8938 127,96.5C 126.263,98.596 125.097,100.263 123.5,101.5C 94.5,101.5 65.5,101.5 36.5,101.5C 33.2228,92.7547 30.2228,83.7547 27.5,74.5C 24.3738,62.1487 20.8738,49.8154 17,37.5C 16.5831,36.244 15.7498,35.5774 14.5,35.5C 14.5,33.1667 14.5,30.8333 14.5,28.5C 15.1667,28.5 15.8333,28.5 16.5,28.5C 19.4951,28.2938 22.1617,28.9605 24.5,30.5C 32.4425,35.2034 40.9425,39.2034 50,42.5C 55.1777,39.4194 58.8443,35.086 61,29.5C 64.8236,25.2074 68.6569,20.8741 72.5,16.5C 75.2359,14.582 78.0693,12.9153 81,11.5C 83.0089,12.1723 84.8422,13.1723 86.5,14.5C 93.5742,22.2336 100.241,30.2336 106.5,38.5 Z M 79.5,26.5 C 87.7929,35.6615 96.1262,44.9948 104.5,54.5C 111.835,56.0033 118.502,54.5033 124.5,50C 125.944,49.2195 127.277,49.3861 128.5,50.5C 123.984,63.6372 119.984,76.9705 116.5,90.5C 92.5,90.5 68.5,90.5 44.5,90.5C 41.0159,76.9705 37.0159,63.6372 32.5,50.5C 33.723,49.3861 35.0563,49.2195 36.5,50C 42.4984,54.5033 49.165,56.0033 56.5,54.5C 62.8085,46.8574 69.4751,39.5241 76.5,32.5C 77.549,30.472 78.549,28.472 79.5,26.5 Z"/></g>
<g><path style="opacity:0.247" fill="#7f5414" d="M 107.5,34.5 C 107.768,36.099 107.434,37.4324 106.5,38.5C 100.241,30.2336 93.5742,22.2336 86.5,14.5C 84.8422,13.1723 83.0089,12.1723 81,11.5C 78.0693,12.9153 75.2359,14.582 72.5,16.5C 68.6569,20.8741 64.8236,25.2074 61,29.5C 58.8443,35.086 55.1777,39.4194 50,42.5C 40.9425,39.2034 32.4425,35.2034 24.5,30.5C 31.4412,32.5873 38.1079,35.4206 44.5,39C 46.7116,39.7891 48.7116,39.6225 50.5,38.5C 57.1076,29.8877 64.1076,21.5543 71.5,13.5C 76.3216,8.10318 81.6549,7.43652 87.5,11.5C 94.1892,19.1863 100.856,26.853 107.5,34.5 Z"/></g>
<g><path style="opacity:0.042" fill="#030100" d="M 18.5,26.5 C 17.8333,27.1667 17.1667,27.8333 16.5,28.5C 15.8333,28.5 15.1667,28.5 14.5,28.5C 15.1834,26.8235 16.5168,26.1568 18.5,26.5 Z"/></g>
<g><path style="opacity:0.678" fill="#704b11" d="M 18.5,26.5 C 20.924,26.1924 23.2573,26.5258 25.5,27.5C 33.6468,31.6614 41.9801,35.3281 50.5,38.5C 48.7116,39.6225 46.7116,39.7891 44.5,39C 38.1079,35.4206 31.4412,32.5873 24.5,30.5C 22.1617,28.9605 19.4951,28.2938 16.5,28.5C 17.1667,27.8333 17.8333,27.1667 18.5,26.5 Z"/></g>
<g><path style="opacity:0.478" fill="#6b4711" d="M 146.5,29.5 C 144.658,29.2767 142.825,28.9434 141,28.5C 130.16,32.833 119.66,37.833 109.5,43.5C 108.237,41.9713 107.237,40.3046 106.5,38.5C 107.434,37.4324 107.768,36.099 107.5,34.5C 108.834,36.159 110.501,37.4924 112.5,38.5C 120.081,34.6405 127.747,30.9738 135.5,27.5C 139.107,26.5108 142.774,26.1774 146.5,26.5C 146.5,27.5 146.5,28.5 146.5,29.5 Z"/></g>
<g><path style="opacity:0.576" fill="#a16a1b" d="M 14.5,35.5 C 15.7498,35.5774 16.5831,36.244 17,37.5C 20.8738,49.8154 24.3738,62.1487 27.5,74.5C 22.2349,63.0671 18.4016,51.0671 16,38.5C 15.6174,37.944 15.1174,37.6107 14.5,37.5C 14.5,36.8333 14.5,36.1667 14.5,35.5 Z"/></g>
<g><path style="opacity:0.22" fill="#54380b" d="M 135.5,80.5 C 134.043,85.2956 132.377,89.9623 130.5,94.5C 130.848,89.7779 131.515,85.1112 132.5,80.5C 133.5,80.5 134.5,80.5 135.5,80.5 Z"/></g>
<g><path style="opacity:0.216" fill="#7b5113" d="M 122.5,80.5 C 121.442,81.6002 120.608,82.9336 120,84.5C 119.774,87.095 119.274,89.595 118.5,92C 93.5,92.6667 68.5,92.6667 43.5,92C 42.3913,90.1239 41.3913,88.2905 40.5,86.5C 37.8395,73.8346 34.0062,61.5012 29,49.5C 28.5045,47.5273 28.3379,45.5273 28.5,43.5C 34.352,46.4858 40.352,49.3192 46.5,52C 48.7538,53.1505 51.0871,53.4838 53.5,53C 61.1478,45.5302 67.8145,37.3636 73.5,28.5C 76.3418,27.9955 77.6751,26.3289 77.5,23.5C 79.5,23.5 81.5,23.5 83.5,23.5C 83.3433,24.8734 83.51,26.2068 84,27.5C 91.131,35.3007 98.2977,43.134 105.5,51C 108.554,51.8214 111.554,51.6548 114.5,50.5C 120.529,48.1105 126.529,45.7771 132.5,43.5C 133.045,46.9976 132.212,49.9976 130,52.5C 127.188,61.7664 124.688,71.0998 122.5,80.5 Z M 79.5,26.5 C 78.549,28.472 77.549,30.472 76.5,32.5C 69.4751,39.5241 62.8085,46.8574 56.5,54.5C 49.165,56.0033 42.4984,54.5033 36.5,50C 35.0563,49.2195 33.723,49.3861 32.5,50.5C 37.0159,63.6372 41.0159,76.9705 44.5,90.5C 68.5,90.5 92.5,90.5 116.5,90.5C 119.984,76.9705 123.984,63.6372 128.5,50.5C 127.277,49.3861 125.944,49.2195 124.5,50C 118.502,54.5033 111.835,56.0033 104.5,54.5C 96.1262,44.9948 87.7929,35.6615 79.5,26.5 Z"/></g>
<g><path style="opacity:0.413" fill="#7f5413" d="M 146.5,36.5 C 146.441,39.6905 146.107,42.8571 145.5,46C 141.678,57.4438 138.345,68.9438 135.5,80.5C 134.5,80.5 133.5,80.5 132.5,80.5C 131.515,85.1112 130.848,89.7779 130.5,94.5C 129.366,97.559 128.033,100.559 126.5,103.5C 95.8333,104.833 65.1667,104.833 34.5,103.5C 30.1657,94.4948 26.6657,85.1614 24,75.5C 21.3269,65.6431 18.4935,55.8097 15.5,46C 14.9695,43.1834 14.6361,40.35 14.5,37.5C 15.1174,37.6107 15.6174,37.944 16,38.5C 18.4016,51.0671 22.2349,63.0671 27.5,74.5C 30.2228,83.7547 33.2228,92.7547 36.5,101.5C 37.2625,102.268 38.2625,102.768 39.5,103C 66.8333,103.667 94.1667,103.667 121.5,103C 122.416,102.722 123.082,102.222 123.5,101.5C 125.097,100.263 126.263,98.596 127,96.5C 129.537,86.8938 132.371,77.5605 135.5,68.5C 139.385,61.4265 141.719,53.7598 142.5,45.5C 143.389,42.2296 144.723,39.2296 146.5,36.5 Z"/></g>
<g><path style="opacity:0.729" fill="#9f6a1b" d="M 36.5,101.5 C 65.5,101.5 94.5,101.5 123.5,101.5C 123.082,102.222 122.416,102.722 121.5,103C 94.1667,103.667 66.8333,103.667 39.5,103C 38.2625,102.768 37.2625,102.268 36.5,101.5 Z"/></g>
<g><path style="opacity:0.976" fill="#bb7c20" d="M 122.5,80.5 C 121.498,84.3911 120.665,88.3911 120,92.5C 119.5,93 119,93.5 118.5,94C 93.1667,94.6667 67.8333,94.6667 42.5,94C 40.7215,91.8646 40.0548,89.3646 40.5,86.5C 41.3913,88.2905 42.3913,90.1239 43.5,92C 68.5,92.6667 93.5,92.6667 118.5,92C 119.274,89.595 119.774,87.095 120,84.5C 120.608,82.9336 121.442,81.6002 122.5,80.5 Z"/></g>
<g><path style="opacity:0.529" fill="#a26b1b" d="M 142.5,45.5 C 141.719,53.7598 139.385,61.4265 135.5,68.5C 135.338,66.4727 135.505,64.4727 136,62.5C 138.12,56.7892 140.287,51.1225 142.5,45.5 Z"/></g>
<g><path style="opacity:1" fill="#d7d7d7" d="M 142.5,113.5 C 142.833,181.335 142.499,249.002 141.5,316.5C 141.5,248.833 141.5,181.167 141.5,113.5C 133.248,113.184 125.081,113.518 117,114.5C 116.667,179.833 116.333,245.167 116,310.5C 115.31,311.738 114.81,311.738 114.5,310.5C 114.333,244.832 114.5,179.166 115,113.5C 115.903,112.299 117.069,111.465 118.5,111C 125.833,110.333 133.167,110.333 140.5,111C 141.381,111.708 142.047,112.542 142.5,113.5 Z"/></g>
<g><path style="opacity:1" fill="#ebebeb" d="M 31.5,110.5 C 49.5031,110.333 67.5031,110.5 85.5,111C 92.4737,111.977 96.9737,115.81 99,122.5C 99.6667,178.833 99.6667,235.167 99,291.5C 98.2496,292.126 97.4162,292.626 96.5,293C 88.8333,293.667 81.1667,293.667 73.5,293C 72.6667,292.167 71.8333,291.333 71,290.5C 70.6667,286.167 70.3333,281.833 70,277.5C 69.1667,276.667 68.3333,275.833 67.5,275C 61.5,274.333 55.5,274.333 49.5,275C 48.6667,275.833 47.8333,276.667 47,277.5C 46.6667,296.833 46.3333,316.167 46,335.5C 43.1056,341.281 38.4389,343.614 32,342.5C 25.5227,343.595 20.856,341.262 18,335.5C 17.3333,264.5 17.3333,193.5 18,122.5C 20.1962,115.798 24.6962,111.798 31.5,110.5 Z M 50.5,139.5 C 55.8437,139.334 61.1771,139.501 66.5,140C 67.9308,140.465 69.0975,141.299 70,142.5C 70.6667,175.833 70.6667,209.167 70,242.5C 69.5,243.667 68.6667,244.5 67.5,245C 61.8333,245.667 56.1667,245.667 50.5,245C 48.9391,244.682 47.7724,243.849 47,242.5C 46.3333,209.167 46.3333,175.833 47,142.5C 48.1451,141.364 49.3117,140.364 50.5,139.5 Z"/></g>
<g><path style="opacity:1" fill="#f0f0f0" d="M 141.5,316.5 C 139.044,326.47 133.044,333.637 123.5,338C 124.056,338.383 124.389,338.883 124.5,339.5C 119.039,341.882 113.205,342.882 107,342.5C 84.2703,342.768 72.1036,331.602 70.5,309C 70.3066,305.757 70.9733,302.757 72.5,300C 80.8333,299.333 89.1667,299.333 97.5,300C 98.9163,303.922 100.25,307.922 101.5,312C 106.195,314.257 110.528,313.757 114.5,310.5C 114.81,311.738 115.31,311.738 116,310.5C 116.333,245.167 116.667,179.833 117,114.5C 125.081,113.518 133.248,113.184 141.5,113.5C 141.5,181.167 141.5,248.833 141.5,316.5 Z"/></g>
<g><path style="opacity:1" fill="#b9b9b9" d="M 142.5,113.5 C 143.665,181.332 143.832,249.332 143,317.5C 140.579,328.08 134.412,335.413 124.5,339.5C 124.389,338.883 124.056,338.383 123.5,338C 133.044,333.637 139.044,326.47 141.5,316.5C 142.499,249.002 142.833,181.335 142.5,113.5 Z"/></g>
</svg>
