<svg xmlns="http://www.w3.org/2000/svg" viewBox="0 0 160 160">
                        <path id="textcircle" fill="none" d="M80 15.7c19.4 0 36.8 8.6 48.6 22.2 9.8 11.3 15.7 26 15.7 42.1 0 18.3-7.6 34.8-19.8 46.5-11.5 11-27.2 17.8-44.4 17.8-19.6 0-37.2-8.8-49-22.6-9.6-11.2-15.4-25.8-15.4-41.7 0-14.4 4.8-27.8 12.8-38.5C40.2 25.8 58.9 15.7 80 15.7m0-1c-20.8 0-39.8 9.5-52.3 26.2-8.5 11.4-13 24.9-13 39.1 0 15.5 5.5 30.5 15.6 42.3 12.4 14.6 30.6 23 49.7 23 16.9 0 32.9-6.4 45.1-18.1 13-12.4 20.2-29.2 20.2-47.2 0-15.7-5.6-30.9-15.9-42.7C117 22.9 99 14.7 80 14.7z"></path>
                    <text>
                        <textPath xlink:href="#textcircle">
                            <tspan>Portfolio already outdated  &nbsp;&nbsp;&nbsp;
                            Portfolio already outdated</tspan>
                        </textPath>
                    </text>
                    
                    <path class="grave" d="M87.77 100.397h-3.245V80.845c0-1.843-.374-3.604-1.051-5.204a13.415 13.415 0 00-4.843-5.882l-.044-.028c.79.15 1.55.382 2.27.687 2.03.858 3.76 2.294 4.98 4.1a11.257 11.257 0 011.932 6.327v19.552zm-27.93 0V80.845c0-1.565.317-3.051.889-4.405a11.362 11.362 0 014.1-4.979 11.257 11.257 0 016.327-1.932c1.565 0 3.05.317 4.404.889 2.03.858 3.76 2.294 4.98 4.1a11.257 11.257 0 011.931 6.327v19.552H59.84zM88.772 75.64a13.415 13.415 0 00-4.843-5.882 13.313 13.313 0 00-7.475-2.284h-5.298c-1.843 0-3.605.375-5.205 1.052a13.414 13.414 0 00-5.88 4.842 13.313 13.313 0 00-2.285 7.476v21.605h32.037V80.845c0-1.843-.374-3.604-1.051-5.204z" fill="#18033C"></path><path class="grave" d="M73.624 84.134a6.697 6.697 0 01-2.289.43c-.81 0-1.595-.174-2.324-.444-1.093-.403-2.05-1.023-2.724-1.542-.186-.143-.35-.278-.491-.399.321-.275.769-.628 1.31-.976a9.96 9.96 0 011.844-.941 2.45 2.45 0 00.12 1.55 2.465 2.465 0 002.265 1.5 2.455 2.455 0 002.386-3.05c1.067.403 2.001 1.01 2.663 1.518.186.144.35.279.49.4-.32.275-.768.628-1.31.976a9.87 9.87 0 01-1.94.978zm-3.179-3.655a.972.972 0 01.89-.59.96.96 0 01.801.426.957.957 0 01.09.915.972.972 0 01-.89.59.959.959 0 01-.802-.427.956.956 0 01-.164-.539.96.96 0 01.075-.375zm8.069 1.186c-.027-.027-.805-.846-2.078-1.677a11.433 11.433 0 00-2.258-1.15c-.86-.318-1.82-.536-2.843-.536s-1.983.218-2.842.535c-1.29.478-2.36 1.178-3.116 1.76-.757.582-1.2 1.047-1.22 1.068l-.488.514.488.514c.027.028.805.847 2.078 1.677.637.415 1.398.833 2.258 1.151.86.318 1.819.536 2.842.536 1.023 0 1.983-.218 2.843-.536 1.289-.477 2.359-1.178 3.116-1.76.757-.581 1.2-1.047 1.22-1.068l.488-.514-.488-.514z" fill="#F3F2F4"></path>
                    
                    <circle fill="#420FE7" cx="80" cy="13.8" r="13.8"></circle>
                    <circle fill="#420FE7" cx="80" cy="146.2" r="13.8"></circle>
                    <path fill="#D6D6ED" style="transform: translateY(132px)" d="M75.3 16.3l1.8-1.9c.6-.6 1-1.2 1.3-1.7s.3-1 .3-1.6c0-.4-.1-.8-.3-1.2s-.3-.6-.6-.9c-.3-.2-.6-.4-1-.6-.4-.1-.8-.2-1.2-.2-.8 0-1.4.2-1.9.5s-.9.8-1.3 1.3l1.4 1c.4-.7 1-1 1.7-1 .2 0 .5.1.7.2s.3.3.5.5c.1.2.2.4.2.7 0 .4-.1.7-.3 1.1-.2.3-.5.7-1 1.2l-3 3.2v1.3h6.3v-1.7l-3.6-.2zM87.4 11.1c-.2-.6-.4-1.1-.8-1.6-.3-.4-.7-.7-1.2-1-.5-.2-1-.3-1.5-.3-.6 0-1.1.1-1.6.4-.5.2-.9.6-1.2 1s-.6 1-.7 1.6-.3 1.3-.3 2c0 .8.1 1.5.3 2.1.2.6.4 1.1.8 1.6.3.4.7.7 1.2 1 .5.2 1 .3 1.5.3.8 0 1.4-.2 2-.6s1-1 1.3-1.7.4-1.6.4-2.6c.1-.9 0-1.6-.2-2.2zm-2.2 4.4c-.3.5-.8.8-1.3.8-.4 0-.7-.1-1-.4-.3-.3-.5-.6-.6-1.1s-.2-1-.2-1.7c0-1 .2-1.8.5-2.3s.8-.8 1.3-.8c.6 0 1 .3 1.3.8.3.6.5 1.3.5 2.3 0 1.1-.1 1.9-.5 2.4z"></path>

                    <path fill="#D6D6ED" d="M75.3 16.3l1.8-1.9c.6-.6 1-1.2 1.3-1.7s.3-1 .3-1.6c0-.4-.1-.8-.3-1.2s-.3-.6-.6-.9c-.3-.2-.6-.4-1-.6-.4-.1-.8-.2-1.2-.2-.8 0-1.4.2-1.9.5s-.9.8-1.3 1.3l1.4 1c.4-.7 1-1 1.7-1 .2 0 .5.1.7.2s.3.3.5.5c.1.2.2.4.2.7 0 .4-.1.7-.3 1.1-.2.3-.5.7-1 1.2l-3 3.2v1.3h6.3v-1.7l-3.6-.2zM87.4 11.1c-.2-.6-.4-1.1-.8-1.6-.3-.4-.7-.7-1.2-1-.5-.2-1-.3-1.5-.3-.6 0-1.1.1-1.6.4-.5.2-.9.6-1.2 1s-.6 1-.7 1.6-.3 1.3-.3 2c0 .8.1 1.5.3 2.1.2.6.4 1.1.8 1.6.3.4.7.7 1.2 1 .5.2 1 .3 1.5.3.8 0 1.4-.2 2-.6s1-1 1.3-1.7.4-1.6.4-2.6c.1-.9 0-1.6-.2-2.2zm-2.2 4.4c-.3.5-.8.8-1.3.8-.4 0-.7-.1-1-.4-.3-.3-.5-.6-.6-1.1s-.2-1-.2-1.7c0-1 .2-1.8.5-2.3s.8-.8 1.3-.8c.6 0 1 .3 1.3.8.3.6.5 1.3.5 2.3 0 1.1-.1 1.9-.5 2.4z"></path>
                </svg>